<svg id="Anahuac" xmlns="http://www.w3.org/2000/svg" viewBox="0 0 50 50"><defs><style>.cls-1{fill:#ff5900;}.cls-2{fill:#231f20;}.cls-3{fill:#f2f2f2;}</style></defs><circle class="cls-1" cx="25" cy="25" r="25"/><g id="_231f20ff" data-name="#231f20ff"><path class="cls-2" d="M15.07,9c.42,0,.84,0,1.26,0H34.94c0,.56,0,1.12,0,1.68,0,1.82,0,3.65,0,5.47H31.7c.09.3.2.58.3.87l2.4,6.76c.26.69.49,1.39.74,2.08.41,1.14.81,2.28,1.21,3.42s.85,2.4,1.29,3.6c.12.34.23.68.37,1h3.07c0,.43,0,.87,0,1.3,0,1.95,0,3.91,0,5.86H27.56c0-.78,0-1.56,0-2.35,0-1.6,0-3.21,0-4.81.94,0,1.87,0,2.81,0-.06-.24-.15-.48-.23-.71-.14-.43-.29-.86-.42-1.29,0-.16-.11-.31-.17-.46H21.2c-.26,0-.51,0-.76,0-.25.83-.55,1.63-.8,2.45h2.8V41H9c0-2.15,0-4.31,0-6.46a4,4,0,0,0,0-.69v0c.35,0,.71,0,1.06,0h1.74a.57.57,0,0,0,.29,0,4,4,0,0,0,.2-.52q1.27-3.59,2.56-7.19c.69-2,1.41-4,2.11-5.95l1.17-3.3c.09-.25.18-.49.26-.74-.47,0-.94,0-1.41,0H15.07c0-.77,0-1.54,0-2.31,0-1.62,0-3.23,0-4.84m1.77,1.76v3.63h4c0,.12-.08.25-.13.38l-7.11,20c-.09.29-.21.58-.3.87-.86,0-1.72,0-2.58,0v3.63h10c0-.17,0-.34,0-.5,0-1,0-2.09,0-3.13H17.18c.08-.27.18-.53.27-.79.22-.64.41-1.29.63-1.92s.46-1.32.66-2c.15-.44.28-.87.44-1.3H30.84c0,.14.08.28.13.41q.77,2.34,1.55,4.66c.1.31.21.61.29.92-1.16,0-2.32,0-3.48,0,0,1.2,0,2.41,0,3.62h10c0-.17,0-.34,0-.5,0-1,0-2.09,0-3.13H36.75c-.2-.58-.41-1.14-.61-1.71-.3-.82-.57-1.64-.87-2.46s-.62-1.76-.94-2.64c-.79-2.24-1.59-4.47-2.38-6.71-.45-1.21-.86-2.44-1.31-3.65-.07-.22-.14-.43-.22-.64-.26-.71-.5-1.43-.76-2.14-.15-.45-.32-.89-.47-1.33h4c0-1.06,0-2.11,0-3.17,0-.15,0-.3,0-.45H16.84Z"/><path class="cls-2" d="M24.38,14.39a.72.72,0,0,1,.29,0c.32,0,.64,0,1,0,.09.27.19.54.28.82.18.58.41,1.15.59,1.73.09.28.19.55.28.83.19.52.36,1.05.54,1.58.1.26.17.53.27.8s.19.57.3.85c.31.93.63,1.85.94,2.77.11.28.19.58.29.86s.17.52.27.77.15.48.24.72a3,3,0,0,1,.12.4H20.24c.12-.31.2-.63.32-.94.17-.5.34-1,.52-1.5s.36-1.08.55-1.62.28-.84.43-1.27c.07-.19.12-.4.2-.59s.2-.62.32-.92.28-.82.41-1.23.2-.6.31-.89.14-.44.23-.66.22-.67.34-1,.25-.69.35-1a3.43,3.43,0,0,1,.16-.45m.3,4.57c-.12.38-.26.75-.39,1.13s-.19.61-.3.91-.23.63-.33.95c-.16.5-.35,1-.51,1.51s-.31.84-.43,1.28H27.3c-.21-.58-.39-1.17-.6-1.74s-.29-.89-.45-1.33q-.15-.42-.3-.87c-.15-.47-.33-.93-.48-1.4s-.31-.9-.46-1.36C24.88,18.33,24.79,18.65,24.68,19Z"/></g><g id="_ff5900ff" data-name="#ff5900ff"><path class="cls-3" d="M16.84,10.73H33.16c0,.15,0,.3,0,.45,0,1.06,0,2.11,0,3.17h-4c.15.44.32.88.47,1.33.26.71.5,1.43.76,2.14.08.21.15.42.22.64.45,1.21.86,2.44,1.31,3.65.79,2.24,1.59,4.47,2.38,6.71.32.88.62,1.76.94,2.64s.57,1.64.87,2.46c.2.57.41,1.13.61,1.71H39.3c0,1,0,2.09,0,3.13,0,.16,0,.33,0,.5h-10c0-1.21,0-2.42,0-3.62,1.16,0,2.32,0,3.48,0-.08-.31-.19-.61-.29-.92q-.78-2.33-1.55-4.66c0-.13-.09-.27-.13-.41H19.18c-.16.43-.29.86-.44,1.3-.2.66-.44,1.31-.66,2s-.41,1.28-.63,1.92c-.09.26-.19.52-.27.79h3.49c0,1,0,2.09,0,3.13,0,.16,0,.33,0,.5h-10V35.63c.86,0,1.72,0,2.58,0,.09-.29.21-.58.3-.87l7.11-20c.05-.13.09-.26.13-.38h-4V10.73m7.54,3.66a3.43,3.43,0,0,0-.16.45c-.1.35-.24.69-.35,1s-.22.67-.34,1-.15.44-.23.66-.19.6-.31.89-.28.82-.41,1.23-.2.62-.32.92-.13.4-.2.59c-.15.43-.3.85-.43,1.27s-.38,1.08-.55,1.62-.35,1-.52,1.5c-.12.31-.2.63-.32.94h9.51a3,3,0,0,0-.12-.4c-.09-.24-.15-.48-.24-.72s-.17-.51-.27-.77-.18-.58-.29-.86c-.31-.92-.63-1.84-.94-2.77-.11-.28-.19-.57-.3-.85s-.17-.54-.27-.8c-.18-.53-.35-1.06-.54-1.58-.09-.28-.19-.55-.28-.83-.18-.58-.41-1.15-.59-1.73-.09-.28-.19-.55-.28-.82-.32,0-.64,0-1,0A.72.72,0,0,0,24.38,14.39Z"/></g></svg>