<svg id="Three.js" xmlns="http://www.w3.org/2000/svg" viewBox="0 0 50 50"><defs><style>.cls-1{fill:#1a1a1a;}.cls-2{fill:#f2f2f2;}</style></defs><circle class="cls-1" cx="25" cy="25" r="25"/><path class="cls-2" d="M43.44,19.07l-8.13-2.35a.48.48,0,0,0-.17,0l-16-4.61a.29.29,0,0,0-.2-.05L10.79,9.67l-.11,0a.38.38,0,0,0-.37.38s0,.06,0,.09l4.07,16.46s0,0,0,.06l4.07,16.45a.37.37,0,0,0,.45.27.26.26,0,0,0,.17-.09L43.6,19.7Zm-9.06-1.83-5.14,5-1.71-6.93Zm-5.88,5.1-6.82-2,5.12-4.93Zm-7-1.24,6.85,2-5.14,5Zm1,7.25-7-2,5.24-5Zm3.8-13.44-5.13,4.94-1.7-6.91ZM20.41,20l-6.85-2,5.14-4.95Zm-9.2-9.46,7,2-5.22,5Zm2,8.18,7,2-5.24,5Zm2,8.31,6.85,2L17,34ZM19,42.27l-1.76-7.14,7.07,2Zm-1.43-7.83,5.14-5,1.71,6.93Zm7.61,1.89-1.71-6.9,6.83,2Zm-1.64-7.67,5.23-5,1.74,7Zm7.7,1.83-1.73-7,7,2Zm-1.51-7.76,5.14-4.95,1.71,6.92Zm7.61,1.9-1.73-7,7,2Z"/></svg>